<?xml version="1.0" encoding="UTF-8" standalone="no"?>
<!DOCTYPE svg PUBLIC "-//W3C//DTD SVG 1.1//EN"
 "http://www.w3.org/Graphics/SVG/1.1/DTD/svg11.dtd">
<!-- Generated by graphviz version 14.0.5 (20251129.0259)
 -->
<!-- Title: BinaryTree Pages: 1 -->
<svg width="3235pt" height="1590pt"
 viewBox="0.00 0.00 3235.00 1590.00" xmlns="http://www.w3.org/2000/svg" xmlns:xlink="http://www.w3.org/1999/xlink">
<g id="graph0" class="graph" transform="scale(1 1) rotate(0) translate(4 1585.75)">
<title>BinaryTree</title>
<polygon fill="white" stroke="none" points="-4,4 -4,-1585.75 3231.3,-1585.75 3231.3,4 -4,4"/>
<!-- 1 -->
<g id="node1" class="node">
<title>1</title>
<polygon fill="pink" stroke="black" points="1457.25,-1581.75 1400.75,-1581.75 1400.75,-1545.75 1457.25,-1545.75 1457.25,-1581.75"/>
<text xml:space="preserve" text-anchor="middle" x="1429" y="-1558.33" font-family="Arial" font-size="14.00">ROOT</text>
</g>
<!-- 0x1031016d0 -->
<g id="node2" class="node">
<title>0x1031016d0</title>
<path fill="pink" stroke="black" d="M1308.75,-1390.5C1308.75,-1390.5 1549.25,-1390.5 1549.25,-1390.5 1555.25,-1390.5 1561.25,-1396.5 1561.25,-1402.5 1561.25,-1402.5 1561.25,-1497.25 1561.25,-1497.25 1561.25,-1503.25 1555.25,-1509.25 1549.25,-1509.25 1549.25,-1509.25 1308.75,-1509.25 1308.75,-1509.25 1302.75,-1509.25 1296.75,-1503.25 1296.75,-1497.25 1296.75,-1497.25 1296.75,-1402.5 1296.75,-1402.5 1296.75,-1396.5 1302.75,-1390.5 1308.75,-1390.5"/>
<text xml:space="preserve" text-anchor="middle" x="1429" y="-1491.95" font-family="Arial" font-size="14.00">Parent: 0x0 </text>
<polyline fill="none" stroke="black" points="1296.75,-1485.5 1561.25,-1485.5"/>
<text xml:space="preserve" text-anchor="middle" x="1429" y="-1468.2" font-family="Arial" font-size="14.00">Addr: 0x1031016d0 </text>
<polyline fill="none" stroke="black" points="1296.75,-1461.75 1561.25,-1461.75"/>
<text xml:space="preserve" text-anchor="middle" x="1429" y="-1444.45" font-family="Arial" font-size="14.00">Type: OP</text>
<polyline fill="none" stroke="black" points="1296.75,-1438 1561.25,-1438"/>
<text xml:space="preserve" text-anchor="middle" x="1429" y="-1420.7" font-family="Arial" font-size="14.00">Value: ;</text>
<polyline fill="none" stroke="black" points="1296.75,-1414.25 1561.25,-1414.25"/>
<text xml:space="preserve" text-anchor="middle" x="1360.62" y="-1396.95" font-family="Arial" font-size="14.00">Left: 0x103101890</text>
<polyline fill="none" stroke="black" points="1424.5,-1390.5 1424.5,-1414.25"/>
<text xml:space="preserve" text-anchor="middle" x="1492.88" y="-1396.95" font-family="Arial" font-size="14.00">Right: 0x103101710</text>
</g>
<!-- 1&#45;&gt;0x1031016d0 -->
<g id="edge1" class="edge">
<title>1&#45;&gt;0x1031016d0</title>
<path fill="none" stroke="black" d="M1429,-1545.27C1429,-1538.28 1429,-1529.74 1429,-1520.67"/>
<polygon fill="black" stroke="black" points="1432.5,-1520.95 1429,-1510.95 1425.5,-1520.95 1432.5,-1520.95"/>
</g>
<!-- 0x103101890 -->
<g id="node3" class="node">
<title>0x103101890</title>
<path fill="skyblue" stroke="black" d="M1167.75,-1234.75C1167.75,-1234.75 1408.25,-1234.75 1408.25,-1234.75 1414.25,-1234.75 1420.25,-1240.75 1420.25,-1246.75 1420.25,-1246.75 1420.25,-1341.5 1420.25,-1341.5 1420.25,-1347.5 1414.25,-1353.5 1408.25,-1353.5 1408.25,-1353.5 1167.75,-1353.5 1167.75,-1353.5 1161.75,-1353.5 1155.75,-1347.5 1155.75,-1341.5 1155.75,-1341.5 1155.75,-1246.75 1155.75,-1246.75 1155.75,-1240.75 1161.75,-1234.75 1167.75,-1234.75"/>
<text xml:space="preserve" text-anchor="middle" x="1288" y="-1336.2" font-family="Arial" font-size="14.00">Parent: 0x1031016d0 </text>
<polyline fill="none" stroke="black" points="1155.75,-1329.75 1420.25,-1329.75"/>
<text xml:space="preserve" text-anchor="middle" x="1288" y="-1312.45" font-family="Arial" font-size="14.00">Addr: 0x103101890 </text>
<polyline fill="none" stroke="black" points="1155.75,-1306 1420.25,-1306"/>
<text xml:space="preserve" text-anchor="middle" x="1288" y="-1288.7" font-family="Arial" font-size="14.00">Type: OP</text>
<polyline fill="none" stroke="black" points="1155.75,-1282.25 1420.25,-1282.25"/>
<text xml:space="preserve" text-anchor="middle" x="1288" y="-1264.95" font-family="Arial" font-size="14.00">Value: func declare</text>
<polyline fill="none" stroke="black" points="1155.75,-1258.5 1420.25,-1258.5"/>
<text xml:space="preserve" text-anchor="middle" x="1219.62" y="-1241.2" font-family="Arial" font-size="14.00">Left: 0x103100a10</text>
<polyline fill="none" stroke="black" points="1283.5,-1234.75 1283.5,-1258.5"/>
<text xml:space="preserve" text-anchor="middle" x="1351.88" y="-1241.2" font-family="Arial" font-size="14.00">Right: 0x1031018d0</text>
</g>
<!-- 0x1031016d0&#45;&gt;0x103101890 -->
<g id="edge2" class="edge">
<title>0x1031016d0&#45;&gt;0x103101890</title>
<path fill="none" stroke="black" d="M1375.29,-1390.31C1366.8,-1381.06 1357.97,-1371.42 1349.33,-1362"/>
<polygon fill="black" stroke="black" points="1352.15,-1359.9 1342.82,-1354.9 1346.99,-1364.63 1352.15,-1359.9"/>
</g>
<!-- 0x103101710 -->
<g id="node21" class="node">
<title>0x103101710</title>
<path fill="skyblue" stroke="black" d="M1450.75,-1234.75C1450.75,-1234.75 1691.25,-1234.75 1691.25,-1234.75 1697.25,-1234.75 1703.25,-1240.75 1703.25,-1246.75 1703.25,-1246.75 1703.25,-1341.5 1703.25,-1341.5 1703.25,-1347.5 1697.25,-1353.5 1691.25,-1353.5 1691.25,-1353.5 1450.75,-1353.5 1450.75,-1353.5 1444.75,-1353.5 1438.75,-1347.5 1438.75,-1341.5 1438.75,-1341.5 1438.75,-1246.75 1438.75,-1246.75 1438.75,-1240.75 1444.75,-1234.75 1450.75,-1234.75"/>
<text xml:space="preserve" text-anchor="middle" x="1571" y="-1336.2" font-family="Arial" font-size="14.00">Parent: 0x1031016d0 </text>
<polyline fill="none" stroke="black" points="1438.75,-1329.75 1703.25,-1329.75"/>
<text xml:space="preserve" text-anchor="middle" x="1571" y="-1312.45" font-family="Arial" font-size="14.00">Addr: 0x103101710 </text>
<polyline fill="none" stroke="black" points="1438.75,-1306 1703.25,-1306"/>
<text xml:space="preserve" text-anchor="middle" x="1571" y="-1288.7" font-family="Arial" font-size="14.00">Type: OP</text>
<polyline fill="none" stroke="black" points="1438.75,-1282.25 1703.25,-1282.25"/>
<text xml:space="preserve" text-anchor="middle" x="1571" y="-1264.95" font-family="Arial" font-size="14.00">Value: func declare</text>
<polyline fill="none" stroke="black" points="1438.75,-1258.5 1703.25,-1258.5"/>
<text xml:space="preserve" text-anchor="middle" x="1502.62" y="-1241.2" font-family="Arial" font-size="14.00">Left: 0x103100350</text>
<polyline fill="none" stroke="black" points="1566.5,-1234.75 1566.5,-1258.5"/>
<text xml:space="preserve" text-anchor="middle" x="1634.88" y="-1241.2" font-family="Arial" font-size="14.00">Right: 0x103101750</text>
</g>
<!-- 0x1031016d0&#45;&gt;0x103101710 -->
<g id="edge20" class="edge">
<title>0x1031016d0&#45;&gt;0x103101710</title>
<path fill="none" stroke="black" d="M1483.09,-1390.31C1491.64,-1381.06 1500.53,-1371.42 1509.24,-1362"/>
<polygon fill="black" stroke="black" points="1511.59,-1364.61 1515.8,-1354.89 1506.44,-1359.87 1511.59,-1364.61"/>
</g>
<!-- 0x103100a10 -->
<g id="node4" class="node">
<title>0x103100a10</title>
<polygon fill="gold" stroke="black" points="1177,-1116.01 1177,-1160.74 1092.65,-1192.38 973.35,-1192.38 889,-1160.74 889,-1116.01 973.35,-1084.38 1092.65,-1084.38 1177,-1116.01"/>
<text xml:space="preserve" text-anchor="middle" x="1033" y="-1164.45" font-family="Arial" font-size="14.00">Parent: 0x103101890</text>
<text xml:space="preserve" text-anchor="middle" x="1033" y="-1148.7" font-family="Arial" font-size="14.00">Addr: 0x103100a10</text>
<text xml:space="preserve" text-anchor="middle" x="1033" y="-1132.95" font-family="Arial" font-size="14.00">Type: VAR</text>
<text xml:space="preserve" text-anchor="middle" x="1033" y="-1117.2" font-family="Arial" font-size="14.00">Value: adepio_maximus</text>
<text xml:space="preserve" text-anchor="middle" x="1033" y="-1101.45" font-family="Arial" font-size="14.00">Left: 0x0 | Right: 0x0</text>
</g>
<!-- 0x103101890&#45;&gt;0x103100a10 -->
<g id="edge3" class="edge">
<title>0x103101890&#45;&gt;0x103100a10</title>
<path fill="none" stroke="black" d="M1190.5,-1234.34C1167.25,-1220.32 1142.59,-1205.45 1119.85,-1191.74"/>
<polygon fill="black" stroke="black" points="1121.9,-1188.89 1111.53,-1186.72 1118.29,-1194.89 1121.9,-1188.89"/>
</g>
<!-- 0x1031018d0 -->
<g id="node5" class="node">
<title>0x1031018d0</title>
<path fill="pink" stroke="black" d="M1206.75,-1079C1206.75,-1079 1387.25,-1079 1387.25,-1079 1393.25,-1079 1399.25,-1085 1399.25,-1091 1399.25,-1091 1399.25,-1185.75 1399.25,-1185.75 1399.25,-1191.75 1393.25,-1197.75 1387.25,-1197.75 1387.25,-1197.75 1206.75,-1197.75 1206.75,-1197.75 1200.75,-1197.75 1194.75,-1191.75 1194.75,-1185.75 1194.75,-1185.75 1194.75,-1091 1194.75,-1091 1194.75,-1085 1200.75,-1079 1206.75,-1079"/>
<text xml:space="preserve" text-anchor="middle" x="1297" y="-1180.45" font-family="Arial" font-size="14.00">Parent: 0x103101890 </text>
<polyline fill="none" stroke="black" points="1194.75,-1174 1399.25,-1174"/>
<text xml:space="preserve" text-anchor="middle" x="1297" y="-1156.7" font-family="Arial" font-size="14.00">Addr: 0x1031018d0 </text>
<polyline fill="none" stroke="black" points="1194.75,-1150.25 1399.25,-1150.25"/>
<text xml:space="preserve" text-anchor="middle" x="1297" y="-1132.95" font-family="Arial" font-size="14.00">Type: OP</text>
<polyline fill="none" stroke="black" points="1194.75,-1126.5 1399.25,-1126.5"/>
<text xml:space="preserve" text-anchor="middle" x="1297" y="-1109.2" font-family="Arial" font-size="14.00">Value: ;</text>
<polyline fill="none" stroke="black" points="1194.75,-1102.75 1399.25,-1102.75"/>
<text xml:space="preserve" text-anchor="middle" x="1228.62" y="-1085.45" font-family="Arial" font-size="14.00">Left: 0x0</text>
<polyline fill="none" stroke="black" points="1262.5,-1079 1262.5,-1102.75"/>
<text xml:space="preserve" text-anchor="middle" x="1330.88" y="-1085.45" font-family="Arial" font-size="14.00">Right: 0x103101910</text>
</g>
<!-- 0x103101890&#45;&gt;0x1031018d0 -->
<g id="edge4" class="edge">
<title>0x103101890&#45;&gt;0x1031018d0</title>
<path fill="none" stroke="black" d="M1291.43,-1234.56C1291.91,-1226.33 1292.41,-1217.81 1292.9,-1209.4"/>
<polygon fill="black" stroke="black" points="1296.39,-1209.73 1293.48,-1199.54 1289.4,-1209.32 1296.39,-1209.73"/>
</g>
<!-- 0x103101910 -->
<g id="node6" class="node">
<title>0x103101910</title>
<path fill="pink" stroke="black" d="M1176.75,-923.25C1176.75,-923.25 1417.25,-923.25 1417.25,-923.25 1423.25,-923.25 1429.25,-929.25 1429.25,-935.25 1429.25,-935.25 1429.25,-1030 1429.25,-1030 1429.25,-1036 1423.25,-1042 1417.25,-1042 1417.25,-1042 1176.75,-1042 1176.75,-1042 1170.75,-1042 1164.75,-1036 1164.75,-1030 1164.75,-1030 1164.75,-935.25 1164.75,-935.25 1164.75,-929.25 1170.75,-923.25 1176.75,-923.25"/>
<text xml:space="preserve" text-anchor="middle" x="1297" y="-1024.7" font-family="Arial" font-size="14.00">Parent: 0x1031018d0 </text>
<polyline fill="none" stroke="black" points="1164.75,-1018.25 1429.25,-1018.25"/>
<text xml:space="preserve" text-anchor="middle" x="1297" y="-1000.95" font-family="Arial" font-size="14.00">Addr: 0x103101910 </text>
<polyline fill="none" stroke="black" points="1164.75,-994.5 1429.25,-994.5"/>
<text xml:space="preserve" text-anchor="middle" x="1297" y="-977.2" font-family="Arial" font-size="14.00">Type: OP</text>
<polyline fill="none" stroke="black" points="1164.75,-970.75 1429.25,-970.75"/>
<text xml:space="preserve" text-anchor="middle" x="1297" y="-953.45" font-family="Arial" font-size="14.00">Value: ;</text>
<polyline fill="none" stroke="black" points="1164.75,-947 1429.25,-947"/>
<text xml:space="preserve" text-anchor="middle" x="1228.62" y="-929.7" font-family="Arial" font-size="14.00">Left: 0x103101950</text>
<polyline fill="none" stroke="black" points="1292.5,-923.25 1292.5,-947"/>
<text xml:space="preserve" text-anchor="middle" x="1360.88" y="-929.7" font-family="Arial" font-size="14.00">Right: 0x103100510</text>
</g>
<!-- 0x1031018d0&#45;&gt;0x103101910 -->
<g id="edge5" class="edge">
<title>0x1031018d0&#45;&gt;0x103101910</title>
<path fill="none" stroke="black" d="M1297,-1078.81C1297,-1070.58 1297,-1062.06 1297,-1053.65"/>
<polygon fill="black" stroke="black" points="1300.5,-1053.8 1297,-1043.8 1293.5,-1053.8 1300.5,-1053.8"/>
</g>
<!-- 0x103101950 -->
<g id="node7" class="node">
<title>0x103101950</title>
<path fill="pink" stroke="black" d="M904.75,-767.5C904.75,-767.5 1145.25,-767.5 1145.25,-767.5 1151.25,-767.5 1157.25,-773.5 1157.25,-779.5 1157.25,-779.5 1157.25,-874.25 1157.25,-874.25 1157.25,-880.25 1151.25,-886.25 1145.25,-886.25 1145.25,-886.25 904.75,-886.25 904.75,-886.25 898.75,-886.25 892.75,-880.25 892.75,-874.25 892.75,-874.25 892.75,-779.5 892.75,-779.5 892.75,-773.5 898.75,-767.5 904.75,-767.5"/>
<text xml:space="preserve" text-anchor="middle" x="1025" y="-868.95" font-family="Arial" font-size="14.00">Parent: 0x103101910 </text>
<polyline fill="none" stroke="black" points="892.75,-862.5 1157.25,-862.5"/>
<text xml:space="preserve" text-anchor="middle" x="1025" y="-845.2" font-family="Arial" font-size="14.00">Addr: 0x103101950 </text>
<polyline fill="none" stroke="black" points="892.75,-838.75 1157.25,-838.75"/>
<text xml:space="preserve" text-anchor="middle" x="1025" y="-821.45" font-family="Arial" font-size="14.00">Type: OP</text>
<polyline fill="none" stroke="black" points="892.75,-815 1157.25,-815"/>
<text xml:space="preserve" text-anchor="middle" x="1025" y="-797.7" font-family="Arial" font-size="14.00">Value: ;</text>
<polyline fill="none" stroke="black" points="892.75,-791.25 1157.25,-791.25"/>
<text xml:space="preserve" text-anchor="middle" x="956.62" y="-773.95" font-family="Arial" font-size="14.00">Left: 0x103101a10</text>
<polyline fill="none" stroke="black" points="1020.5,-767.5 1020.5,-791.25"/>
<text xml:space="preserve" text-anchor="middle" x="1088.88" y="-773.95" font-family="Arial" font-size="14.00">Right: 0x103100690</text>
</g>
<!-- 0x103101910&#45;&gt;0x103101950 -->
<g id="edge6" class="edge">
<title>0x103101910&#45;&gt;0x103101950</title>
<path fill="none" stroke="black" d="M1193,-922.84C1175.29,-912.83 1156.8,-902.38 1138.85,-892.23"/>
<polygon fill="black" stroke="black" points="1140.68,-889.25 1130.26,-887.37 1137.24,-895.34 1140.68,-889.25"/>
</g>
<!-- 0x103100510 -->
<g id="node19" class="node">
<title>0x103100510</title>
<path fill="tan" stroke="black" d="M1208.75,-767.5C1208.75,-767.5 1389.25,-767.5 1389.25,-767.5 1395.25,-767.5 1401.25,-773.5 1401.25,-779.5 1401.25,-779.5 1401.25,-874.25 1401.25,-874.25 1401.25,-880.25 1395.25,-886.25 1389.25,-886.25 1389.25,-886.25 1208.75,-886.25 1208.75,-886.25 1202.75,-886.25 1196.75,-880.25 1196.75,-874.25 1196.75,-874.25 1196.75,-779.5 1196.75,-779.5 1196.75,-773.5 1202.75,-767.5 1208.75,-767.5"/>
<text xml:space="preserve" text-anchor="middle" x="1299" y="-868.95" font-family="Arial" font-size="14.00">Parent: 0x103101910 </text>
<polyline fill="none" stroke="black" points="1196.75,-862.5 1401.25,-862.5"/>
<text xml:space="preserve" text-anchor="middle" x="1299" y="-845.2" font-family="Arial" font-size="14.00">Addr: 0x103100510 </text>
<polyline fill="none" stroke="black" points="1196.75,-838.75 1401.25,-838.75"/>
<text xml:space="preserve" text-anchor="middle" x="1299" y="-821.45" font-family="Arial" font-size="14.00">Type: OP</text>
<polyline fill="none" stroke="black" points="1196.75,-815 1401.25,-815"/>
<text xml:space="preserve" text-anchor="middle" x="1299" y="-797.7" font-family="Arial" font-size="14.00">Value: write</text>
<polyline fill="none" stroke="black" points="1196.75,-791.25 1401.25,-791.25"/>
<text xml:space="preserve" text-anchor="middle" x="1260.62" y="-773.95" font-family="Arial" font-size="14.00">Left: 0x103100490</text>
<polyline fill="none" stroke="black" points="1324.5,-767.5 1324.5,-791.25"/>
<text xml:space="preserve" text-anchor="middle" x="1362.88" y="-773.95" font-family="Arial" font-size="14.00">Right: 0x0</text>
</g>
<!-- 0x103101910&#45;&gt;0x103100510 -->
<g id="edge18" class="edge">
<title>0x103101910&#45;&gt;0x103100510</title>
<path fill="none" stroke="black" d="M1297.76,-923.06C1297.87,-914.83 1297.98,-906.31 1298.09,-897.9"/>
<polygon fill="black" stroke="black" points="1301.59,-898.09 1298.22,-888.05 1294.59,-898 1301.59,-898.09"/>
</g>
<!-- 0x103101a10 -->
<g id="node8" class="node">
<title>0x103101a10</title>
<path fill="pink" stroke="black" d="M621.75,-611.75C621.75,-611.75 862.25,-611.75 862.25,-611.75 868.25,-611.75 874.25,-617.75 874.25,-623.75 874.25,-623.75 874.25,-718.5 874.25,-718.5 874.25,-724.5 868.25,-730.5 862.25,-730.5 862.25,-730.5 621.75,-730.5 621.75,-730.5 615.75,-730.5 609.75,-724.5 609.75,-718.5 609.75,-718.5 609.75,-623.75 609.75,-623.75 609.75,-617.75 615.75,-611.75 621.75,-611.75"/>
<text xml:space="preserve" text-anchor="middle" x="742" y="-713.2" font-family="Arial" font-size="14.00">Parent: 0x103101950 </text>
<polyline fill="none" stroke="black" points="609.75,-706.75 874.25,-706.75"/>
<text xml:space="preserve" text-anchor="middle" x="742" y="-689.45" font-family="Arial" font-size="14.00">Addr: 0x103101a10 </text>
<polyline fill="none" stroke="black" points="609.75,-683 874.25,-683"/>
<text xml:space="preserve" text-anchor="middle" x="742" y="-665.7" font-family="Arial" font-size="14.00">Type: OP</text>
<polyline fill="none" stroke="black" points="609.75,-659.25 874.25,-659.25"/>
<text xml:space="preserve" text-anchor="middle" x="742" y="-641.95" font-family="Arial" font-size="14.00">Value: ;</text>
<polyline fill="none" stroke="black" points="609.75,-635.5 874.25,-635.5"/>
<text xml:space="preserve" text-anchor="middle" x="673.62" y="-618.2" font-family="Arial" font-size="14.00">Left: 0x1031008d0</text>
<polyline fill="none" stroke="black" points="737.5,-611.75 737.5,-635.5"/>
<text xml:space="preserve" text-anchor="middle" x="805.88" y="-618.2" font-family="Arial" font-size="14.00">Right: 0x103101a50</text>
</g>
<!-- 0x103101950&#45;&gt;0x103101a10 -->
<g id="edge7" class="edge">
<title>0x103101950&#45;&gt;0x103101a10</title>
<path fill="none" stroke="black" d="M916.8,-767.09C898.28,-757.03 878.96,-746.53 860.2,-736.34"/>
<polygon fill="black" stroke="black" points="861.93,-733.3 851.47,-731.6 858.59,-739.45 861.93,-733.3"/>
</g>
<!-- 0x103100690 -->
<g id="node14" class="node">
<title>0x103100690</title>
<path fill="#9bcd9b" stroke="black" d="M904.75,-611.75C904.75,-611.75 1145.25,-611.75 1145.25,-611.75 1151.25,-611.75 1157.25,-617.75 1157.25,-623.75 1157.25,-623.75 1157.25,-718.5 1157.25,-718.5 1157.25,-724.5 1151.25,-730.5 1145.25,-730.5 1145.25,-730.5 904.75,-730.5 904.75,-730.5 898.75,-730.5 892.75,-724.5 892.75,-718.5 892.75,-718.5 892.75,-623.75 892.75,-623.75 892.75,-617.75 898.75,-611.75 904.75,-611.75"/>
<text xml:space="preserve" text-anchor="middle" x="1025" y="-713.2" font-family="Arial" font-size="14.00">Parent: 0x103101950 </text>
<polyline fill="none" stroke="black" points="892.75,-706.75 1157.25,-706.75"/>
<text xml:space="preserve" text-anchor="middle" x="1025" y="-689.45" font-family="Arial" font-size="14.00">Addr: 0x103100690 </text>
<polyline fill="none" stroke="black" points="892.75,-683 1157.25,-683"/>
<text xml:space="preserve" text-anchor="middle" x="1025" y="-665.7" font-family="Arial" font-size="14.00">Type: OP</text>
<polyline fill="none" stroke="black" points="892.75,-659.25 1157.25,-659.25"/>
<text xml:space="preserve" text-anchor="middle" x="1025" y="-641.95" font-family="Arial" font-size="14.00">Value: =</text>
<polyline fill="none" stroke="black" points="892.75,-635.5 1157.25,-635.5"/>
<text xml:space="preserve" text-anchor="middle" x="956.62" y="-618.2" font-family="Arial" font-size="14.00">Left: 0x1031006d0</text>
<polyline fill="none" stroke="black" points="1020.5,-611.75 1020.5,-635.5"/>
<text xml:space="preserve" text-anchor="middle" x="1088.88" y="-618.2" font-family="Arial" font-size="14.00">Right: 0x103101990</text>
</g>
<!-- 0x103101950&#45;&gt;0x103100690 -->
<g id="edge13" class="edge">
<title>0x103101950&#45;&gt;0x103100690</title>
<path fill="none" stroke="black" d="M1025,-767.31C1025,-759.08 1025,-750.56 1025,-742.15"/>
<polygon fill="black" stroke="black" points="1028.5,-742.3 1025,-732.3 1021.5,-742.3 1028.5,-742.3"/>
</g>
<!-- 0x1031008d0 -->
<g id="node9" class="node">
<title>0x1031008d0</title>
<path fill="#9bcd9b" stroke="black" d="M338.75,-456C338.75,-456 579.25,-456 579.25,-456 585.25,-456 591.25,-462 591.25,-468 591.25,-468 591.25,-562.75 591.25,-562.75 591.25,-568.75 585.25,-574.75 579.25,-574.75 579.25,-574.75 338.75,-574.75 338.75,-574.75 332.75,-574.75 326.75,-568.75 326.75,-562.75 326.75,-562.75 326.75,-468 326.75,-468 326.75,-462 332.75,-456 338.75,-456"/>
<text xml:space="preserve" text-anchor="middle" x="459" y="-557.45" font-family="Arial" font-size="14.00">Parent: 0x103101a10 </text>
<polyline fill="none" stroke="black" points="326.75,-551 591.25,-551"/>
<text xml:space="preserve" text-anchor="middle" x="459" y="-533.7" font-family="Arial" font-size="14.00">Addr: 0x1031008d0 </text>
<polyline fill="none" stroke="black" points="326.75,-527.25 591.25,-527.25"/>
<text xml:space="preserve" text-anchor="middle" x="459" y="-509.95" font-family="Arial" font-size="14.00">Type: OP</text>
<polyline fill="none" stroke="black" points="326.75,-503.5 591.25,-503.5"/>
<text xml:space="preserve" text-anchor="middle" x="459" y="-486.2" font-family="Arial" font-size="14.00">Value: =</text>
<polyline fill="none" stroke="black" points="326.75,-479.75 591.25,-479.75"/>
<text xml:space="preserve" text-anchor="middle" x="390.62" y="-462.45" font-family="Arial" font-size="14.00">Left: 0x103100910</text>
<polyline fill="none" stroke="black" points="454.5,-456 454.5,-479.75"/>
<text xml:space="preserve" text-anchor="middle" x="522.88" y="-462.45" font-family="Arial" font-size="14.00">Right: 0x103100890</text>
</g>
<!-- 0x103101a10&#45;&gt;0x1031008d0 -->
<g id="edge8" class="edge">
<title>0x103101a10&#45;&gt;0x1031008d0</title>
<path fill="none" stroke="black" d="M633.8,-611.34C615.28,-601.28 595.96,-590.78 577.2,-580.59"/>
<polygon fill="black" stroke="black" points="578.93,-577.55 568.47,-575.85 575.59,-583.7 578.93,-577.55"/>
</g>
<!-- 0x103101a50 -->
<g id="node12" class="node">
<title>0x103101a50</title>
<path fill="tan" stroke="black" d="M652.75,-456C652.75,-456 833.25,-456 833.25,-456 839.25,-456 845.25,-462 845.25,-468 845.25,-468 845.25,-562.75 845.25,-562.75 845.25,-568.75 839.25,-574.75 833.25,-574.75 833.25,-574.75 652.75,-574.75 652.75,-574.75 646.75,-574.75 640.75,-568.75 640.75,-562.75 640.75,-562.75 640.75,-468 640.75,-468 640.75,-462 646.75,-456 652.75,-456"/>
<text xml:space="preserve" text-anchor="middle" x="743" y="-557.45" font-family="Arial" font-size="14.00">Parent: 0x103101a10 </text>
<polyline fill="none" stroke="black" points="640.75,-551 845.25,-551"/>
<text xml:space="preserve" text-anchor="middle" x="743" y="-533.7" font-family="Arial" font-size="14.00">Addr: 0x103101a50 </text>
<polyline fill="none" stroke="black" points="640.75,-527.25 845.25,-527.25"/>
<text xml:space="preserve" text-anchor="middle" x="743" y="-509.95" font-family="Arial" font-size="14.00">Type: OP</text>
<polyline fill="none" stroke="black" points="640.75,-503.5 845.25,-503.5"/>
<text xml:space="preserve" text-anchor="middle" x="743" y="-486.2" font-family="Arial" font-size="14.00">Value: read</text>
<polyline fill="none" stroke="black" points="640.75,-479.75 845.25,-479.75"/>
<text xml:space="preserve" text-anchor="middle" x="704.62" y="-462.45" font-family="Arial" font-size="14.00">Left: 0x103100790</text>
<polyline fill="none" stroke="black" points="768.5,-456 768.5,-479.75"/>
<text xml:space="preserve" text-anchor="middle" x="806.88" y="-462.45" font-family="Arial" font-size="14.00">Right: 0x0</text>
</g>
<!-- 0x103101a10&#45;&gt;0x103101a50 -->
<g id="edge11" class="edge">
<title>0x103101a10&#45;&gt;0x103101a50</title>
<path fill="none" stroke="black" d="M742.38,-611.56C742.43,-603.33 742.49,-594.81 742.54,-586.4"/>
<polygon fill="black" stroke="black" points="746.04,-586.57 742.61,-576.55 739.04,-586.52 746.04,-586.57"/>
</g>
<!-- 0x103100910 -->
<g id="node10" class="node">
<title>0x103100910</title>
<polygon fill="gold" stroke="black" points="288,-337.26 288,-381.99 203.65,-413.62 84.35,-413.62 0,-381.99 0,-337.26 84.35,-305.63 203.65,-305.62 288,-337.26"/>
<text xml:space="preserve" text-anchor="middle" x="144" y="-385.7" font-family="Arial" font-size="14.00">Parent: 0x1031008d0</text>
<text xml:space="preserve" text-anchor="middle" x="144" y="-369.95" font-family="Arial" font-size="14.00">Addr: 0x103100910</text>
<text xml:space="preserve" text-anchor="middle" x="144" y="-354.2" font-family="Arial" font-size="14.00">Type: VAR</text>
<text xml:space="preserve" text-anchor="middle" x="144" y="-338.45" font-family="Arial" font-size="14.00">Value: n</text>
<text xml:space="preserve" text-anchor="middle" x="144" y="-322.7" font-family="Arial" font-size="14.00">Left: 0x0 | Right: 0x0</text>
</g>
<!-- 0x1031008d0&#45;&gt;0x103100910 -->
<g id="edge9" class="edge">
<title>0x1031008d0&#45;&gt;0x103100910</title>
<path fill="none" stroke="black" d="M338.56,-455.59C306.57,-439.98 272.42,-423.31 241.8,-408.36"/>
<polygon fill="black" stroke="black" points="243.45,-405.27 232.92,-404.03 240.38,-411.56 243.45,-405.27"/>
</g>
<!-- 0x103100890 -->
<g id="node11" class="node">
<title>0x103100890</title>
<polygon fill="dodgerblue" stroke="black" points="473.19,-305.77 482.58,-306.07 491.87,-306.51 501.03,-307.1 510.02,-307.83 518.8,-308.7 527.34,-309.72 535.6,-310.87 543.55,-312.15 551.17,-313.57 558.42,-315.11 565.28,-316.77 571.73,-318.55 577.75,-320.44 583.31,-322.44 588.41,-324.54 593.03,-326.74 597.16,-329.03 600.8,-331.4 603.94,-333.85 606.57,-336.37 608.7,-338.95 610.33,-341.59 611.47,-344.28 612.12,-347.01 612.3,-349.78 612.01,-352.57 611.27,-355.39 610.09,-358.21 608.49,-361.04 606.49,-363.86 604.1,-366.68 601.35,-369.47 598.25,-372.24 594.83,-374.97 591.1,-377.66 587.09,-380.3 582.82,-382.88 578.31,-385.4 573.57,-387.85 568.64,-390.22 563.51,-392.51 558.23,-394.71 552.8,-396.81 547.23,-398.81 541.55,-400.7 535.76,-402.48 529.89,-404.14 523.94,-405.68 517.92,-407.1 511.85,-408.38 505.73,-409.53 499.57,-410.55 493.38,-411.42 487.16,-412.15 480.92,-412.74 474.67,-413.18 468.41,-413.48 462.14,-413.62 455.86,-413.62 449.59,-413.48 443.33,-413.18 437.08,-412.74 430.84,-412.15 424.62,-411.42 418.43,-410.55 412.27,-409.53 406.15,-408.38 400.08,-407.1 394.06,-405.68 388.11,-404.14 382.24,-402.48 376.45,-400.7 370.77,-398.81 365.2,-396.81 359.77,-394.71 354.49,-392.51 349.36,-390.22 344.43,-387.85 339.69,-385.4 335.18,-382.88 330.91,-380.3 326.9,-377.66 323.17,-374.97 319.75,-372.24 316.65,-369.47 313.9,-366.68 311.51,-363.86 309.51,-361.04 307.91,-358.21 306.73,-355.39 305.99,-352.57 305.7,-349.78 305.88,-347.01 306.53,-344.28 307.67,-341.59 309.3,-338.95 311.43,-336.37 314.06,-333.85 317.2,-331.4 320.84,-329.03 324.97,-326.74 329.59,-324.54 334.69,-322.44 340.25,-320.44 346.27,-318.55 352.72,-316.77 359.58,-315.11 366.83,-313.57 374.45,-312.15 382.4,-310.87 390.66,-309.72 399.2,-308.7 407.98,-307.83 416.97,-307.1 426.13,-306.51 435.42,-306.07 444.81,-305.77 454.26,-305.63 463.74,-305.63 473.19,-305.77"/>
<text xml:space="preserve" text-anchor="middle" x="459" y="-385.7" font-family="Arial" font-size="14.00">Parent: 0x1031008d0</text>
<text xml:space="preserve" text-anchor="middle" x="459" y="-369.95" font-family="Arial" font-size="14.00">Addr: 0x103100890</text>
<text xml:space="preserve" text-anchor="middle" x="459" y="-354.2" font-family="Arial" font-size="14.00">Type: NUM</text>
<text xml:space="preserve" text-anchor="middle" x="459" y="-338.45" font-family="Arial" font-size="14.00">Value: 0.00</text>
<text xml:space="preserve" text-anchor="middle" x="459" y="-322.7" font-family="Arial" font-size="14.00">Left: 0x0 | Right: 0x0</text>
</g>
<!-- 0x1031008d0&#45;&gt;0x103100890 -->
<g id="edge10" class="edge">
<title>0x1031008d0&#45;&gt;0x103100890</title>
<path fill="none" stroke="black" d="M459,-455.81C459,-445.82 459,-435.4 459,-425.26"/>
<polygon fill="black" stroke="black" points="462.5,-425.49 459,-415.49 455.5,-425.49 462.5,-425.49"/>
</g>
<!-- 0x103100790 -->
<g id="node13" class="node">
<title>0x103100790</title>
<polygon fill="gold" stroke="black" points="918,-337.26 918,-381.99 833.65,-413.62 714.35,-413.62 630,-381.99 630,-337.26 714.35,-305.63 833.65,-305.62 918,-337.26"/>
<text xml:space="preserve" text-anchor="middle" x="774" y="-385.7" font-family="Arial" font-size="14.00">Parent: 0x103101a50</text>
<text xml:space="preserve" text-anchor="middle" x="774" y="-369.95" font-family="Arial" font-size="14.00">Addr: 0x103100790</text>
<text xml:space="preserve" text-anchor="middle" x="774" y="-354.2" font-family="Arial" font-size="14.00">Type: VAR</text>
<text xml:space="preserve" text-anchor="middle" x="774" y="-338.45" font-family="Arial" font-size="14.00">Value: n</text>
<text xml:space="preserve" text-anchor="middle" x="774" y="-322.7" font-family="Arial" font-size="14.00">Left: 0x0 | Right: 0x0</text>
</g>
<!-- 0x103101a50&#45;&gt;0x103100790 -->
<g id="edge12" class="edge">
<title>0x103101a50&#45;&gt;0x103100790</title>
<path fill="none" stroke="black" d="M754.81,-455.81C756.82,-445.82 758.92,-435.4 760.97,-425.26"/>
<polygon fill="black" stroke="black" points="764.4,-425.96 762.94,-415.46 757.54,-424.57 764.4,-425.96"/>
</g>
<!-- 0x1031006d0 -->
<g id="node15" class="node">
<title>0x1031006d0</title>
<polygon fill="gold" stroke="black" points="1160,-493.01 1160,-537.74 1075.65,-569.38 956.35,-569.38 872,-537.74 872,-493.01 956.35,-461.38 1075.65,-461.38 1160,-493.01"/>
<text xml:space="preserve" text-anchor="middle" x="1016" y="-541.45" font-family="Arial" font-size="14.00">Parent: 0x103100690</text>
<text xml:space="preserve" text-anchor="middle" x="1016" y="-525.7" font-family="Arial" font-size="14.00">Addr: 0x1031006d0</text>
<text xml:space="preserve" text-anchor="middle" x="1016" y="-509.95" font-family="Arial" font-size="14.00">Type: VAR</text>
<text xml:space="preserve" text-anchor="middle" x="1016" y="-494.2" font-family="Arial" font-size="14.00">Value: result</text>
<text xml:space="preserve" text-anchor="middle" x="1016" y="-478.45" font-family="Arial" font-size="14.00">Left: 0x0 | Right: 0x0</text>
</g>
<!-- 0x103100690&#45;&gt;0x1031006d0 -->
<g id="edge14" class="edge">
<title>0x103100690&#45;&gt;0x1031006d0</title>
<path fill="none" stroke="black" d="M1021.57,-611.56C1020.99,-601.57 1020.38,-591.15 1019.78,-581.01"/>
<polygon fill="black" stroke="black" points="1023.29,-581.02 1019.21,-571.24 1016.3,-581.43 1023.29,-581.02"/>
</g>
<!-- 0x103101990 -->
<g id="node16" class="node">
<title>0x103101990</title>
<path fill="#c6e2ff" stroke="black" d="M1189.75,-456C1189.75,-456 1430.25,-456 1430.25,-456 1436.25,-456 1442.25,-462 1442.25,-468 1442.25,-468 1442.25,-562.75 1442.25,-562.75 1442.25,-568.75 1436.25,-574.75 1430.25,-574.75 1430.25,-574.75 1189.75,-574.75 1189.75,-574.75 1183.75,-574.75 1177.75,-568.75 1177.75,-562.75 1177.75,-562.75 1177.75,-468 1177.75,-468 1177.75,-462 1183.75,-456 1189.75,-456"/>
<text xml:space="preserve" text-anchor="middle" x="1310" y="-557.45" font-family="Arial" font-size="14.00">Parent: 0x103100690 </text>
<polyline fill="none" stroke="black" points="1177.75,-551 1442.25,-551"/>
<text xml:space="preserve" text-anchor="middle" x="1310" y="-533.7" font-family="Arial" font-size="14.00">Addr: 0x103101990 </text>
<polyline fill="none" stroke="black" points="1177.75,-527.25 1442.25,-527.25"/>
<text xml:space="preserve" text-anchor="middle" x="1310" y="-509.95" font-family="Arial" font-size="14.00">Type: OP</text>
<polyline fill="none" stroke="black" points="1177.75,-503.5 1442.25,-503.5"/>
<text xml:space="preserve" text-anchor="middle" x="1310" y="-486.2" font-family="Arial" font-size="14.00">Value: call func</text>
<polyline fill="none" stroke="black" points="1177.75,-479.75 1442.25,-479.75"/>
<text xml:space="preserve" text-anchor="middle" x="1241.62" y="-462.45" font-family="Arial" font-size="14.00">Left: 0x103100650</text>
<polyline fill="none" stroke="black" points="1305.5,-456 1305.5,-479.75"/>
<text xml:space="preserve" text-anchor="middle" x="1373.88" y="-462.45" font-family="Arial" font-size="14.00">Right: 0x1031005d0</text>
</g>
<!-- 0x103100690&#45;&gt;0x103101990 -->
<g id="edge15" class="edge">
<title>0x103100690&#45;&gt;0x103101990</title>
<path fill="none" stroke="black" d="M1133.97,-611.34C1152.61,-601.28 1172.08,-590.78 1190.97,-580.59"/>
<polygon fill="black" stroke="black" points="1192.62,-583.67 1199.76,-575.85 1189.3,-577.51 1192.62,-583.67"/>
</g>
<!-- 0x103100650 -->
<g id="node17" class="node">
<title>0x103100650</title>
<polygon fill="gold" stroke="black" points="1339,-337.26 1339,-381.99 1254.65,-413.62 1135.35,-413.62 1051,-381.99 1051,-337.26 1135.35,-305.63 1254.65,-305.62 1339,-337.26"/>
<text xml:space="preserve" text-anchor="middle" x="1195" y="-385.7" font-family="Arial" font-size="14.00">Parent: 0x103101990</text>
<text xml:space="preserve" text-anchor="middle" x="1195" y="-369.95" font-family="Arial" font-size="14.00">Addr: 0x103100650</text>
<text xml:space="preserve" text-anchor="middle" x="1195" y="-354.2" font-family="Arial" font-size="14.00">Type: VAR</text>
<text xml:space="preserve" text-anchor="middle" x="1195" y="-338.45" font-family="Arial" font-size="14.00">Value: countfact</text>
<text xml:space="preserve" text-anchor="middle" x="1195" y="-322.7" font-family="Arial" font-size="14.00">Left: 0x0 | Right: 0x0</text>
</g>
<!-- 0x103101990&#45;&gt;0x103100650 -->
<g id="edge16" class="edge">
<title>0x103101990&#45;&gt;0x103100650</title>
<path fill="none" stroke="black" d="M1266.2,-455.81C1258.16,-445.07 1249.75,-433.82 1241.64,-422.98"/>
<polygon fill="black" stroke="black" points="1244.61,-421.1 1235.81,-415.19 1239,-425.3 1244.61,-421.1"/>
</g>
<!-- 0x1031005d0 -->
<g id="node18" class="node">
<title>0x1031005d0</title>
<polygon fill="gold" stroke="black" points="1645,-337.26 1645,-381.99 1560.65,-413.62 1441.35,-413.62 1357,-381.99 1357,-337.26 1441.35,-305.63 1560.65,-305.62 1645,-337.26"/>
<text xml:space="preserve" text-anchor="middle" x="1501" y="-385.7" font-family="Arial" font-size="14.00">Parent: 0x103101990</text>
<text xml:space="preserve" text-anchor="middle" x="1501" y="-369.95" font-family="Arial" font-size="14.00">Addr: 0x1031005d0</text>
<text xml:space="preserve" text-anchor="middle" x="1501" y="-354.2" font-family="Arial" font-size="14.00">Type: VAR</text>
<text xml:space="preserve" text-anchor="middle" x="1501" y="-338.45" font-family="Arial" font-size="14.00">Value: n</text>
<text xml:space="preserve" text-anchor="middle" x="1501" y="-322.7" font-family="Arial" font-size="14.00">Left: 0x0 | Right: 0x0</text>
</g>
<!-- 0x103101990&#45;&gt;0x1031005d0 -->
<g id="edge17" class="edge">
<title>0x103101990&#45;&gt;0x1031005d0</title>
<path fill="none" stroke="black" d="M1383.03,-455.59C1397.82,-443.69 1413.37,-431.17 1428.15,-419.27"/>
<polygon fill="black" stroke="black" points="1429.98,-422.29 1435.58,-413.29 1425.59,-416.83 1429.98,-422.29"/>
</g>
<!-- 0x103100490 -->
<g id="node20" class="node">
<title>0x103100490</title>
<polygon fill="gold" stroke="black" points="1463,-648.76 1463,-693.49 1378.65,-725.12 1259.35,-725.12 1175,-693.49 1175,-648.76 1259.35,-617.12 1378.65,-617.12 1463,-648.76"/>
<text xml:space="preserve" text-anchor="middle" x="1319" y="-697.2" font-family="Arial" font-size="14.00">Parent: 0x103100510</text>
<text xml:space="preserve" text-anchor="middle" x="1319" y="-681.45" font-family="Arial" font-size="14.00">Addr: 0x103100490</text>
<text xml:space="preserve" text-anchor="middle" x="1319" y="-665.7" font-family="Arial" font-size="14.00">Type: VAR</text>
<text xml:space="preserve" text-anchor="middle" x="1319" y="-649.95" font-family="Arial" font-size="14.00">Value: result</text>
<text xml:space="preserve" text-anchor="middle" x="1319" y="-634.2" font-family="Arial" font-size="14.00">Left: 0x0 | Right: 0x0</text>
</g>
<!-- 0x103100510&#45;&gt;0x103100490 -->
<g id="edge19" class="edge">
<title>0x103100510&#45;&gt;0x103100490</title>
<path fill="none" stroke="black" d="M1306.62,-767.31C1307.92,-757.32 1309.27,-746.9 1310.59,-736.76"/>
<polygon fill="black" stroke="black" points="1314.05,-737.35 1311.86,-726.98 1307.1,-736.45 1314.05,-737.35"/>
</g>
<!-- 0x103100350 -->
<g id="node22" class="node">
<title>0x103100350</title>
<polygon fill="gold" stroke="black" points="1711,-1116.01 1711,-1160.74 1626.65,-1192.38 1507.35,-1192.38 1423,-1160.74 1423,-1116.01 1507.35,-1084.38 1626.65,-1084.38 1711,-1116.01"/>
<text xml:space="preserve" text-anchor="middle" x="1567" y="-1164.45" font-family="Arial" font-size="14.00">Parent: 0x103101710</text>
<text xml:space="preserve" text-anchor="middle" x="1567" y="-1148.7" font-family="Arial" font-size="14.00">Addr: 0x103100350</text>
<text xml:space="preserve" text-anchor="middle" x="1567" y="-1132.95" font-family="Arial" font-size="14.00">Type: VAR</text>
<text xml:space="preserve" text-anchor="middle" x="1567" y="-1117.2" font-family="Arial" font-size="14.00">Value: countfact</text>
<text xml:space="preserve" text-anchor="middle" x="1567" y="-1101.45" font-family="Arial" font-size="14.00">Left: 0x0 | Right: 0x0</text>
</g>
<!-- 0x103101710&#45;&gt;0x103100350 -->
<g id="edge21" class="edge">
<title>0x103101710&#45;&gt;0x103100350</title>
<path fill="none" stroke="black" d="M1569.48,-1234.56C1569.22,-1224.57 1568.95,-1214.15 1568.68,-1204.01"/>
<polygon fill="black" stroke="black" points="1572.19,-1204.15 1568.43,-1194.24 1565.19,-1204.33 1572.19,-1204.15"/>
</g>
<!-- 0x103101750 -->
<g id="node23" class="node">
<title>0x103101750</title>
<path fill="pink" stroke="black" d="M1740.75,-1079C1740.75,-1079 1981.25,-1079 1981.25,-1079 1987.25,-1079 1993.25,-1085 1993.25,-1091 1993.25,-1091 1993.25,-1185.75 1993.25,-1185.75 1993.25,-1191.75 1987.25,-1197.75 1981.25,-1197.75 1981.25,-1197.75 1740.75,-1197.75 1740.75,-1197.75 1734.75,-1197.75 1728.75,-1191.75 1728.75,-1185.75 1728.75,-1185.75 1728.75,-1091 1728.75,-1091 1728.75,-1085 1734.75,-1079 1740.75,-1079"/>
<text xml:space="preserve" text-anchor="middle" x="1861" y="-1180.45" font-family="Arial" font-size="14.00">Parent: 0x103101710 </text>
<polyline fill="none" stroke="black" points="1728.75,-1174 1993.25,-1174"/>
<text xml:space="preserve" text-anchor="middle" x="1861" y="-1156.7" font-family="Arial" font-size="14.00">Addr: 0x103101750 </text>
<polyline fill="none" stroke="black" points="1728.75,-1150.25 1993.25,-1150.25"/>
<text xml:space="preserve" text-anchor="middle" x="1861" y="-1132.95" font-family="Arial" font-size="14.00">Type: OP</text>
<polyline fill="none" stroke="black" points="1728.75,-1126.5 1993.25,-1126.5"/>
<text xml:space="preserve" text-anchor="middle" x="1861" y="-1109.2" font-family="Arial" font-size="14.00">Value: ;</text>
<polyline fill="none" stroke="black" points="1728.75,-1102.75 1993.25,-1102.75"/>
<text xml:space="preserve" text-anchor="middle" x="1792.62" y="-1085.45" font-family="Arial" font-size="14.00">Left: 0x1031002d0</text>
<polyline fill="none" stroke="black" points="1856.5,-1079 1856.5,-1102.75"/>
<text xml:space="preserve" text-anchor="middle" x="1924.88" y="-1085.45" font-family="Arial" font-size="14.00">Right: 0x103101810</text>
</g>
<!-- 0x103101710&#45;&gt;0x103101750 -->
<g id="edge22" class="edge">
<title>0x103101710&#45;&gt;0x103101750</title>
<path fill="none" stroke="black" d="M1681.88,-1234.34C1700.94,-1224.23 1720.84,-1213.69 1740.15,-1203.45"/>
<polygon fill="black" stroke="black" points="1741.65,-1206.61 1748.85,-1198.84 1738.37,-1200.43 1741.65,-1206.61"/>
</g>
<!-- 0x1031002d0 -->
<g id="node24" class="node">
<title>0x1031002d0</title>
<polygon fill="gold" stroke="black" points="2004,-960.26 2004,-1004.99 1919.65,-1036.62 1800.35,-1036.62 1716,-1004.99 1716,-960.26 1800.35,-928.62 1919.65,-928.62 2004,-960.26"/>
<text xml:space="preserve" text-anchor="middle" x="1860" y="-1008.7" font-family="Arial" font-size="14.00">Parent: 0x103101750</text>
<text xml:space="preserve" text-anchor="middle" x="1860" y="-992.95" font-family="Arial" font-size="14.00">Addr: 0x1031002d0</text>
<text xml:space="preserve" text-anchor="middle" x="1860" y="-977.2" font-family="Arial" font-size="14.00">Type: VAR</text>
<text xml:space="preserve" text-anchor="middle" x="1860" y="-961.45" font-family="Arial" font-size="14.00">Value: n</text>
<text xml:space="preserve" text-anchor="middle" x="1860" y="-945.7" font-family="Arial" font-size="14.00">Left: 0x0 | Right: 0x0</text>
</g>
<!-- 0x103101750&#45;&gt;0x1031002d0 -->
<g id="edge23" class="edge">
<title>0x103101750&#45;&gt;0x1031002d0</title>
<path fill="none" stroke="black" d="M1860.62,-1078.81C1860.55,-1068.82 1860.49,-1058.4 1860.42,-1048.26"/>
<polygon fill="black" stroke="black" points="1863.92,-1048.47 1860.36,-1038.49 1856.92,-1048.52 1863.92,-1048.47"/>
</g>
<!-- 0x103101810 -->
<g id="node25" class="node">
<title>0x103101810</title>
<path fill="#ffdead" stroke="black" d="M2033.75,-923.25C2033.75,-923.25 2274.25,-923.25 2274.25,-923.25 2280.25,-923.25 2286.25,-929.25 2286.25,-935.25 2286.25,-935.25 2286.25,-1030 2286.25,-1030 2286.25,-1036 2280.25,-1042 2274.25,-1042 2274.25,-1042 2033.75,-1042 2033.75,-1042 2027.75,-1042 2021.75,-1036 2021.75,-1030 2021.75,-1030 2021.75,-935.25 2021.75,-935.25 2021.75,-929.25 2027.75,-923.25 2033.75,-923.25"/>
<text xml:space="preserve" text-anchor="middle" x="2154" y="-1024.7" font-family="Arial" font-size="14.00">Parent: 0x103101750 </text>
<polyline fill="none" stroke="black" points="2021.75,-1018.25 2286.25,-1018.25"/>
<text xml:space="preserve" text-anchor="middle" x="2154" y="-1000.95" font-family="Arial" font-size="14.00">Addr: 0x103101810 </text>
<polyline fill="none" stroke="black" points="2021.75,-994.5 2286.25,-994.5"/>
<text xml:space="preserve" text-anchor="middle" x="2154" y="-977.2" font-family="Arial" font-size="14.00">Type: OP</text>
<polyline fill="none" stroke="black" points="2021.75,-970.75 2286.25,-970.75"/>
<text xml:space="preserve" text-anchor="middle" x="2154" y="-953.45" font-family="Arial" font-size="14.00">Value: if</text>
<polyline fill="none" stroke="black" points="2021.75,-947 2286.25,-947"/>
<text xml:space="preserve" text-anchor="middle" x="2085.62" y="-929.7" font-family="Arial" font-size="14.00">Left: 0x1031000d0</text>
<polyline fill="none" stroke="black" points="2149.5,-923.25 2149.5,-947"/>
<text xml:space="preserve" text-anchor="middle" x="2217.88" y="-929.7" font-family="Arial" font-size="14.00">Right: 0x103101dd0</text>
</g>
<!-- 0x103101750&#45;&gt;0x103101810 -->
<g id="edge24" class="edge">
<title>0x103101750&#45;&gt;0x103101810</title>
<path fill="none" stroke="black" d="M1973.02,-1078.59C1992.29,-1068.48 2012.39,-1057.94 2031.9,-1047.7"/>
<polygon fill="black" stroke="black" points="2033.47,-1050.83 2040.7,-1043.08 2030.22,-1044.63 2033.47,-1050.83"/>
</g>
<!-- 0x1031000d0 -->
<g id="node26" class="node">
<title>0x1031000d0</title>
<path fill="#eedd82" stroke="black" d="M1924.75,-767.5C1924.75,-767.5 2165.25,-767.5 2165.25,-767.5 2171.25,-767.5 2177.25,-773.5 2177.25,-779.5 2177.25,-779.5 2177.25,-874.25 2177.25,-874.25 2177.25,-880.25 2171.25,-886.25 2165.25,-886.25 2165.25,-886.25 1924.75,-886.25 1924.75,-886.25 1918.75,-886.25 1912.75,-880.25 1912.75,-874.25 1912.75,-874.25 1912.75,-779.5 1912.75,-779.5 1912.75,-773.5 1918.75,-767.5 1924.75,-767.5"/>
<text xml:space="preserve" text-anchor="middle" x="2045" y="-868.95" font-family="Arial" font-size="14.00">Parent: 0x103101810 </text>
<polyline fill="none" stroke="black" points="1912.75,-862.5 2177.25,-862.5"/>
<text xml:space="preserve" text-anchor="middle" x="2045" y="-845.2" font-family="Arial" font-size="14.00">Addr: 0x1031000d0 </text>
<polyline fill="none" stroke="black" points="1912.75,-838.75 2177.25,-838.75"/>
<text xml:space="preserve" text-anchor="middle" x="2045" y="-821.45" font-family="Arial" font-size="14.00">Type: OP</text>
<polyline fill="none" stroke="black" points="1912.75,-815 2177.25,-815"/>
<text xml:space="preserve" text-anchor="middle" x="2045" y="-797.7" font-family="Arial" font-size="14.00">Value: BEQ</text>
<polyline fill="none" stroke="black" points="1912.75,-791.25 2177.25,-791.25"/>
<text xml:space="preserve" text-anchor="middle" x="1976.62" y="-773.95" font-family="Arial" font-size="14.00">Left: 0x103100150</text>
<polyline fill="none" stroke="black" points="2040.5,-767.5 2040.5,-791.25"/>
<text xml:space="preserve" text-anchor="middle" x="2108.88" y="-773.95" font-family="Arial" font-size="14.00">Right: 0x103100090</text>
</g>
<!-- 0x103101810&#45;&gt;0x1031000d0 -->
<g id="edge25" class="edge">
<title>0x103101810&#45;&gt;0x1031000d0</title>
<path fill="none" stroke="black" d="M2112.48,-923.06C2106.18,-914.18 2099.64,-904.95 2093.22,-895.89"/>
<polygon fill="black" stroke="black" points="2096.1,-893.9 2087.46,-887.77 2090.39,-897.95 2096.1,-893.9"/>
</g>
<!-- 0x103101dd0 -->
<g id="node31" class="node">
<title>0x103101dd0</title>
<path fill="#ffdead" stroke="black" d="M2207.75,-767.5C2207.75,-767.5 2448.25,-767.5 2448.25,-767.5 2454.25,-767.5 2460.25,-773.5 2460.25,-779.5 2460.25,-779.5 2460.25,-874.25 2460.25,-874.25 2460.25,-880.25 2454.25,-886.25 2448.25,-886.25 2448.25,-886.25 2207.75,-886.25 2207.75,-886.25 2201.75,-886.25 2195.75,-880.25 2195.75,-874.25 2195.75,-874.25 2195.75,-779.5 2195.75,-779.5 2195.75,-773.5 2201.75,-767.5 2207.75,-767.5"/>
<text xml:space="preserve" text-anchor="middle" x="2328" y="-868.95" font-family="Arial" font-size="14.00">Parent: 0x103101810 </text>
<polyline fill="none" stroke="black" points="2195.75,-862.5 2460.25,-862.5"/>
<text xml:space="preserve" text-anchor="middle" x="2328" y="-845.2" font-family="Arial" font-size="14.00">Addr: 0x103101dd0 </text>
<polyline fill="none" stroke="black" points="2195.75,-838.75 2460.25,-838.75"/>
<text xml:space="preserve" text-anchor="middle" x="2328" y="-821.45" font-family="Arial" font-size="14.00">Type: OP</text>
<polyline fill="none" stroke="black" points="2195.75,-815 2460.25,-815"/>
<text xml:space="preserve" text-anchor="middle" x="2328" y="-797.7" font-family="Arial" font-size="14.00">Value: else</text>
<polyline fill="none" stroke="black" points="2195.75,-791.25 2460.25,-791.25"/>
<text xml:space="preserve" text-anchor="middle" x="2259.62" y="-773.95" font-family="Arial" font-size="14.00">Left: 0x103101850</text>
<polyline fill="none" stroke="black" points="2323.5,-767.5 2323.5,-791.25"/>
<text xml:space="preserve" text-anchor="middle" x="2391.88" y="-773.95" font-family="Arial" font-size="14.00">Right: 0x103101790</text>
</g>
<!-- 0x103101810&#45;&gt;0x103101dd0 -->
<g id="edge30" class="edge">
<title>0x103101810&#45;&gt;0x103101dd0</title>
<path fill="none" stroke="black" d="M2220.28,-923.06C2231.07,-913.53 2242.31,-903.59 2253.29,-893.89"/>
<polygon fill="black" stroke="black" points="2255.31,-896.78 2260.48,-887.53 2250.67,-891.53 2255.31,-896.78"/>
</g>
<!-- 0x103100150 -->
<g id="node27" class="node">
<title>0x103100150</title>
<path fill="#cd69c9" stroke="black" d="M1626.12,-611.75C1626.12,-611.75 1865.88,-611.75 1865.88,-611.75 1871.88,-611.75 1877.88,-617.75 1877.88,-623.75 1877.88,-623.75 1877.88,-718.5 1877.88,-718.5 1877.88,-724.5 1871.88,-730.5 1865.88,-730.5 1865.88,-730.5 1626.12,-730.5 1626.12,-730.5 1620.12,-730.5 1614.12,-724.5 1614.12,-718.5 1614.12,-718.5 1614.12,-623.75 1614.12,-623.75 1614.12,-617.75 1620.12,-611.75 1626.12,-611.75"/>
<text xml:space="preserve" text-anchor="middle" x="1746" y="-713.2" font-family="Arial" font-size="14.00">Parent: 0x1031000d0 </text>
<polyline fill="none" stroke="black" points="1614.12,-706.75 1877.88,-706.75"/>
<text xml:space="preserve" text-anchor="middle" x="1746" y="-689.45" font-family="Arial" font-size="14.00">Addr: 0x103100150 </text>
<polyline fill="none" stroke="black" points="1614.12,-683 1877.88,-683"/>
<text xml:space="preserve" text-anchor="middle" x="1746" y="-665.7" font-family="Arial" font-size="14.00">Type: OP</text>
<polyline fill="none" stroke="black" points="1614.12,-659.25 1877.88,-659.25"/>
<text xml:space="preserve" text-anchor="middle" x="1746" y="-641.95" font-family="Arial" font-size="14.00">Value: SUB</text>
<polyline fill="none" stroke="black" points="1614.12,-635.5 1877.88,-635.5"/>
<text xml:space="preserve" text-anchor="middle" x="1678" y="-618.2" font-family="Arial" font-size="14.00">Left: 0x103100190</text>
<polyline fill="none" stroke="black" points="1741.88,-611.75 1741.88,-635.5"/>
<text xml:space="preserve" text-anchor="middle" x="1809.88" y="-618.2" font-family="Arial" font-size="14.00">Right: 0x103100110</text>
</g>
<!-- 0x1031000d0&#45;&gt;0x103100150 -->
<g id="edge26" class="edge">
<title>0x1031000d0&#45;&gt;0x103100150</title>
<path fill="none" stroke="black" d="M1930.68,-767.09C1910.94,-756.94 1890.32,-746.34 1870.33,-736.06"/>
<polygon fill="black" stroke="black" points="1872.1,-733.03 1861.6,-731.57 1868.89,-739.25 1872.1,-733.03"/>
</g>
<!-- 0x103100090 -->
<g id="node30" class="node">
<title>0x103100090</title>
<polygon fill="dodgerblue" stroke="black" points="2063.19,-617.27 2072.58,-617.57 2081.87,-618.01 2091.03,-618.6 2100.02,-619.33 2108.8,-620.2 2117.34,-621.22 2125.6,-622.37 2133.55,-623.65 2141.17,-625.07 2148.42,-626.61 2155.28,-628.27 2161.73,-630.05 2167.75,-631.94 2173.31,-633.94 2178.41,-636.04 2183.03,-638.24 2187.16,-640.53 2190.8,-642.9 2193.94,-645.35 2196.57,-647.87 2198.7,-650.45 2200.33,-653.09 2201.47,-655.78 2202.12,-658.51 2202.3,-661.28 2202.01,-664.07 2201.27,-666.89 2200.09,-669.71 2198.49,-672.54 2196.49,-675.36 2194.1,-678.18 2191.35,-680.97 2188.25,-683.74 2184.83,-686.47 2181.1,-689.16 2177.09,-691.8 2172.82,-694.38 2168.31,-696.9 2163.57,-699.35 2158.64,-701.72 2153.51,-704.01 2148.23,-706.21 2142.8,-708.31 2137.23,-710.31 2131.55,-712.2 2125.76,-713.98 2119.89,-715.64 2113.94,-717.18 2107.92,-718.6 2101.85,-719.88 2095.73,-721.03 2089.57,-722.05 2083.38,-722.92 2077.16,-723.65 2070.92,-724.24 2064.67,-724.68 2058.41,-724.98 2052.14,-725.12 2045.86,-725.12 2039.59,-724.98 2033.33,-724.68 2027.08,-724.24 2020.84,-723.65 2014.62,-722.92 2008.43,-722.05 2002.27,-721.03 1996.15,-719.88 1990.08,-718.6 1984.06,-717.18 1978.11,-715.64 1972.24,-713.98 1966.45,-712.2 1960.77,-710.31 1955.2,-708.31 1949.77,-706.21 1944.49,-704.01 1939.36,-701.72 1934.43,-699.35 1929.69,-696.9 1925.18,-694.38 1920.91,-691.8 1916.9,-689.16 1913.17,-686.47 1909.75,-683.74 1906.65,-680.97 1903.9,-678.18 1901.51,-675.36 1899.51,-672.54 1897.91,-669.71 1896.73,-666.89 1895.99,-664.07 1895.7,-661.28 1895.88,-658.51 1896.53,-655.78 1897.67,-653.09 1899.3,-650.45 1901.43,-647.87 1904.06,-645.35 1907.2,-642.9 1910.84,-640.53 1914.97,-638.24 1919.59,-636.04 1924.69,-633.94 1930.25,-631.94 1936.27,-630.05 1942.72,-628.27 1949.58,-626.61 1956.83,-625.07 1964.45,-623.65 1972.4,-622.37 1980.66,-621.22 1989.2,-620.2 1997.98,-619.33 2006.97,-618.6 2016.13,-618.01 2025.42,-617.57 2034.81,-617.27 2044.26,-617.13 2053.74,-617.13 2063.19,-617.27"/>
<text xml:space="preserve" text-anchor="middle" x="2049" y="-697.2" font-family="Arial" font-size="14.00">Parent: 0x1031000d0</text>
<text xml:space="preserve" text-anchor="middle" x="2049" y="-681.45" font-family="Arial" font-size="14.00">Addr: 0x103100090</text>
<text xml:space="preserve" text-anchor="middle" x="2049" y="-665.7" font-family="Arial" font-size="14.00">Type: NUM</text>
<text xml:space="preserve" text-anchor="middle" x="2049" y="-649.95" font-family="Arial" font-size="14.00">Value: 0.00</text>
<text xml:space="preserve" text-anchor="middle" x="2049" y="-634.2" font-family="Arial" font-size="14.00">Left: 0x0 | Right: 0x0</text>
</g>
<!-- 0x1031000d0&#45;&gt;0x103100090 -->
<g id="edge29" class="edge">
<title>0x1031000d0&#45;&gt;0x103100090</title>
<path fill="none" stroke="black" d="M2046.52,-767.31C2046.78,-757.32 2047.05,-746.9 2047.32,-736.76"/>
<polygon fill="black" stroke="black" points="2050.81,-737.08 2047.57,-726.99 2043.81,-736.9 2050.81,-737.08"/>
</g>
<!-- 0x103100190 -->
<g id="node28" class="node">
<title>0x103100190</title>
<polygon fill="gold" stroke="black" points="1798,-493.01 1798,-537.74 1713.65,-569.38 1594.35,-569.38 1510,-537.74 1510,-493.01 1594.35,-461.38 1713.65,-461.38 1798,-493.01"/>
<text xml:space="preserve" text-anchor="middle" x="1654" y="-541.45" font-family="Arial" font-size="14.00">Parent: 0x103100150</text>
<text xml:space="preserve" text-anchor="middle" x="1654" y="-525.7" font-family="Arial" font-size="14.00">Addr: 0x103100190</text>
<text xml:space="preserve" text-anchor="middle" x="1654" y="-509.95" font-family="Arial" font-size="14.00">Type: VAR</text>
<text xml:space="preserve" text-anchor="middle" x="1654" y="-494.2" font-family="Arial" font-size="14.00">Value: n</text>
<text xml:space="preserve" text-anchor="middle" x="1654" y="-478.45" font-family="Arial" font-size="14.00">Left: 0x0 | Right: 0x0</text>
</g>
<!-- 0x103100150&#45;&gt;0x103100190 -->
<g id="edge27" class="edge">
<title>0x103100150&#45;&gt;0x103100190</title>
<path fill="none" stroke="black" d="M1710.96,-611.56C1704.66,-601.03 1698.07,-590.02 1691.7,-579.38"/>
<polygon fill="black" stroke="black" points="1694.84,-577.81 1686.7,-571.03 1688.83,-581.41 1694.84,-577.81"/>
</g>
<!-- 0x103100110 -->
<g id="node29" class="node">
<title>0x103100110</title>
<polygon fill="dodgerblue" stroke="black" points="1983.19,-461.52 1992.58,-461.82 2001.87,-462.26 2011.03,-462.85 2020.02,-463.58 2028.8,-464.45 2037.34,-465.47 2045.6,-466.62 2053.55,-467.9 2061.17,-469.32 2068.42,-470.86 2075.28,-472.52 2081.73,-474.3 2087.75,-476.19 2093.31,-478.19 2098.41,-480.29 2103.03,-482.49 2107.16,-484.78 2110.8,-487.15 2113.94,-489.6 2116.57,-492.12 2118.7,-494.7 2120.33,-497.34 2121.47,-500.03 2122.12,-502.76 2122.3,-505.53 2122.01,-508.32 2121.27,-511.14 2120.09,-513.96 2118.49,-516.79 2116.49,-519.61 2114.1,-522.43 2111.35,-525.22 2108.25,-527.99 2104.83,-530.72 2101.1,-533.41 2097.09,-536.05 2092.82,-538.63 2088.31,-541.15 2083.57,-543.6 2078.64,-545.97 2073.51,-548.26 2068.23,-550.46 2062.8,-552.56 2057.23,-554.56 2051.55,-556.45 2045.76,-558.23 2039.89,-559.89 2033.94,-561.43 2027.92,-562.85 2021.85,-564.13 2015.73,-565.28 2009.57,-566.3 2003.38,-567.17 1997.16,-567.9 1990.92,-568.49 1984.67,-568.93 1978.41,-569.23 1972.14,-569.38 1965.86,-569.38 1959.59,-569.23 1953.33,-568.93 1947.08,-568.49 1940.84,-567.9 1934.62,-567.17 1928.43,-566.3 1922.27,-565.28 1916.15,-564.13 1910.08,-562.85 1904.06,-561.43 1898.11,-559.89 1892.24,-558.23 1886.45,-556.45 1880.77,-554.56 1875.2,-552.56 1869.77,-550.46 1864.49,-548.26 1859.36,-545.97 1854.43,-543.6 1849.69,-541.15 1845.18,-538.63 1840.91,-536.05 1836.9,-533.41 1833.17,-530.72 1829.75,-527.99 1826.65,-525.22 1823.9,-522.43 1821.51,-519.61 1819.51,-516.79 1817.91,-513.96 1816.73,-511.14 1815.99,-508.32 1815.7,-505.53 1815.88,-502.76 1816.53,-500.03 1817.67,-497.34 1819.3,-494.7 1821.43,-492.12 1824.06,-489.6 1827.2,-487.15 1830.84,-484.78 1834.97,-482.49 1839.59,-480.29 1844.69,-478.19 1850.25,-476.19 1856.27,-474.3 1862.72,-472.52 1869.58,-470.86 1876.83,-469.32 1884.45,-467.9 1892.4,-466.62 1900.66,-465.47 1909.2,-464.45 1917.98,-463.58 1926.97,-462.85 1936.13,-462.26 1945.42,-461.82 1954.81,-461.52 1964.26,-461.38 1973.74,-461.38 1983.19,-461.52"/>
<text xml:space="preserve" text-anchor="middle" x="1969" y="-541.45" font-family="Arial" font-size="14.00">Parent: 0x103100150</text>
<text xml:space="preserve" text-anchor="middle" x="1969" y="-525.7" font-family="Arial" font-size="14.00">Addr: 0x103100110</text>
<text xml:space="preserve" text-anchor="middle" x="1969" y="-509.95" font-family="Arial" font-size="14.00">Type: NUM</text>
<text xml:space="preserve" text-anchor="middle" x="1969" y="-494.2" font-family="Arial" font-size="14.00">Value: 1.00</text>
<text xml:space="preserve" text-anchor="middle" x="1969" y="-478.45" font-family="Arial" font-size="14.00">Left: 0x0 | Right: 0x0</text>
</g>
<!-- 0x103100150&#45;&gt;0x103100110 -->
<g id="edge28" class="edge">
<title>0x103100150&#45;&gt;0x103100110</title>
<path fill="none" stroke="black" d="M1831.26,-611.34C1851.96,-597.07 1873.94,-581.92 1894.12,-568.01"/>
<polygon fill="black" stroke="black" points="1896.06,-570.91 1902.31,-562.36 1892.09,-565.15 1896.06,-570.91"/>
</g>
<!-- 0x103101850 -->
<g id="node32" class="node">
<title>0x103101850</title>
<path fill="tan" stroke="black" d="M2236.75,-611.75C2236.75,-611.75 2417.25,-611.75 2417.25,-611.75 2423.25,-611.75 2429.25,-617.75 2429.25,-623.75 2429.25,-623.75 2429.25,-718.5 2429.25,-718.5 2429.25,-724.5 2423.25,-730.5 2417.25,-730.5 2417.25,-730.5 2236.75,-730.5 2236.75,-730.5 2230.75,-730.5 2224.75,-724.5 2224.75,-718.5 2224.75,-718.5 2224.75,-623.75 2224.75,-623.75 2224.75,-617.75 2230.75,-611.75 2236.75,-611.75"/>
<text xml:space="preserve" text-anchor="middle" x="2327" y="-713.2" font-family="Arial" font-size="14.00">Parent: 0x103101dd0 </text>
<polyline fill="none" stroke="black" points="2224.75,-706.75 2429.25,-706.75"/>
<text xml:space="preserve" text-anchor="middle" x="2327" y="-689.45" font-family="Arial" font-size="14.00">Addr: 0x103101850 </text>
<polyline fill="none" stroke="black" points="2224.75,-683 2429.25,-683"/>
<text xml:space="preserve" text-anchor="middle" x="2327" y="-665.7" font-family="Arial" font-size="14.00">Type: OP</text>
<polyline fill="none" stroke="black" points="2224.75,-659.25 2429.25,-659.25"/>
<text xml:space="preserve" text-anchor="middle" x="2327" y="-641.95" font-family="Arial" font-size="14.00">Value: return</text>
<polyline fill="none" stroke="black" points="2224.75,-635.5 2429.25,-635.5"/>
<text xml:space="preserve" text-anchor="middle" x="2288.62" y="-618.2" font-family="Arial" font-size="14.00">Left: 0x103101e90</text>
<polyline fill="none" stroke="black" points="2352.5,-611.75 2352.5,-635.5"/>
<text xml:space="preserve" text-anchor="middle" x="2390.88" y="-618.2" font-family="Arial" font-size="14.00">Right: 0x0</text>
</g>
<!-- 0x103101dd0&#45;&gt;0x103101850 -->
<g id="edge31" class="edge">
<title>0x103101dd0&#45;&gt;0x103101850</title>
<path fill="none" stroke="black" d="M2327.62,-767.31C2327.57,-759.08 2327.51,-750.56 2327.46,-742.15"/>
<polygon fill="black" stroke="black" points="2330.96,-742.27 2327.39,-732.3 2323.96,-742.32 2330.96,-742.27"/>
</g>
<!-- 0x103101790 -->
<g id="node34" class="node">
<title>0x103101790</title>
<path fill="tan" stroke="black" d="M2500.12,-611.75C2500.12,-611.75 2679.88,-611.75 2679.88,-611.75 2685.88,-611.75 2691.88,-617.75 2691.88,-623.75 2691.88,-623.75 2691.88,-718.5 2691.88,-718.5 2691.88,-724.5 2685.88,-730.5 2679.88,-730.5 2679.88,-730.5 2500.12,-730.5 2500.12,-730.5 2494.12,-730.5 2488.12,-724.5 2488.12,-718.5 2488.12,-718.5 2488.12,-623.75 2488.12,-623.75 2488.12,-617.75 2494.12,-611.75 2500.12,-611.75"/>
<text xml:space="preserve" text-anchor="middle" x="2590" y="-713.2" font-family="Arial" font-size="14.00">Parent: 0x103101dd0 </text>
<polyline fill="none" stroke="black" points="2488.12,-706.75 2691.88,-706.75"/>
<text xml:space="preserve" text-anchor="middle" x="2590" y="-689.45" font-family="Arial" font-size="14.00">Addr: 0x103101790 </text>
<polyline fill="none" stroke="black" points="2488.12,-683 2691.88,-683"/>
<text xml:space="preserve" text-anchor="middle" x="2590" y="-665.7" font-family="Arial" font-size="14.00">Type: OP</text>
<polyline fill="none" stroke="black" points="2488.12,-659.25 2691.88,-659.25"/>
<text xml:space="preserve" text-anchor="middle" x="2590" y="-641.95" font-family="Arial" font-size="14.00">Value: return</text>
<polyline fill="none" stroke="black" points="2488.12,-635.5 2691.88,-635.5"/>
<text xml:space="preserve" text-anchor="middle" x="2551.62" y="-618.2" font-family="Arial" font-size="14.00">Left: 0x103101cd0</text>
<polyline fill="none" stroke="black" points="2615.12,-611.75 2615.12,-635.5"/>
<text xml:space="preserve" text-anchor="middle" x="2653.5" y="-618.2" font-family="Arial" font-size="14.00">Right: 0x0</text>
</g>
<!-- 0x103101dd0&#45;&gt;0x103101790 -->
<g id="edge33" class="edge">
<title>0x103101dd0&#45;&gt;0x103101790</title>
<path fill="none" stroke="black" d="M2428.17,-767.09C2445.24,-757.08 2463.04,-746.63 2480.34,-736.48"/>
<polygon fill="black" stroke="black" points="2481.72,-739.72 2488.58,-731.64 2478.18,-733.69 2481.72,-739.72"/>
</g>
<!-- 0x103101e90 -->
<g id="node33" class="node">
<title>0x103101e90</title>
<polygon fill="dodgerblue" stroke="black" points="2333.19,-461.52 2342.58,-461.82 2351.87,-462.26 2361.03,-462.85 2370.02,-463.58 2378.8,-464.45 2387.34,-465.47 2395.6,-466.62 2403.55,-467.9 2411.17,-469.32 2418.42,-470.86 2425.28,-472.52 2431.73,-474.3 2437.75,-476.19 2443.31,-478.19 2448.41,-480.29 2453.03,-482.49 2457.16,-484.78 2460.8,-487.15 2463.94,-489.6 2466.57,-492.12 2468.7,-494.7 2470.33,-497.34 2471.47,-500.03 2472.12,-502.76 2472.3,-505.53 2472.01,-508.32 2471.27,-511.14 2470.09,-513.96 2468.49,-516.79 2466.49,-519.61 2464.1,-522.43 2461.35,-525.22 2458.25,-527.99 2454.83,-530.72 2451.1,-533.41 2447.09,-536.05 2442.82,-538.63 2438.31,-541.15 2433.57,-543.6 2428.64,-545.97 2423.51,-548.26 2418.23,-550.46 2412.8,-552.56 2407.23,-554.56 2401.55,-556.45 2395.76,-558.23 2389.89,-559.89 2383.94,-561.43 2377.92,-562.85 2371.85,-564.13 2365.73,-565.28 2359.57,-566.3 2353.38,-567.17 2347.16,-567.9 2340.92,-568.49 2334.67,-568.93 2328.41,-569.23 2322.14,-569.38 2315.86,-569.38 2309.59,-569.23 2303.33,-568.93 2297.08,-568.49 2290.84,-567.9 2284.62,-567.17 2278.43,-566.3 2272.27,-565.28 2266.15,-564.13 2260.08,-562.85 2254.06,-561.43 2248.11,-559.89 2242.24,-558.23 2236.45,-556.45 2230.77,-554.56 2225.2,-552.56 2219.77,-550.46 2214.49,-548.26 2209.36,-545.97 2204.43,-543.6 2199.69,-541.15 2195.18,-538.63 2190.91,-536.05 2186.9,-533.41 2183.17,-530.72 2179.75,-527.99 2176.65,-525.22 2173.9,-522.43 2171.51,-519.61 2169.51,-516.79 2167.91,-513.96 2166.73,-511.14 2165.99,-508.32 2165.7,-505.53 2165.88,-502.76 2166.53,-500.03 2167.67,-497.34 2169.3,-494.7 2171.43,-492.12 2174.06,-489.6 2177.2,-487.15 2180.84,-484.78 2184.97,-482.49 2189.59,-480.29 2194.69,-478.19 2200.25,-476.19 2206.27,-474.3 2212.72,-472.52 2219.58,-470.86 2226.83,-469.32 2234.45,-467.9 2242.4,-466.62 2250.66,-465.47 2259.2,-464.45 2267.98,-463.58 2276.97,-462.85 2286.13,-462.26 2295.42,-461.82 2304.81,-461.52 2314.26,-461.38 2323.74,-461.38 2333.19,-461.52"/>
<text xml:space="preserve" text-anchor="middle" x="2319" y="-541.45" font-family="Arial" font-size="14.00">Parent: 0x103101850</text>
<text xml:space="preserve" text-anchor="middle" x="2319" y="-525.7" font-family="Arial" font-size="14.00">Addr: 0x103101e90</text>
<text xml:space="preserve" text-anchor="middle" x="2319" y="-509.95" font-family="Arial" font-size="14.00">Type: NUM</text>
<text xml:space="preserve" text-anchor="middle" x="2319" y="-494.2" font-family="Arial" font-size="14.00">Value: 1.00</text>
<text xml:space="preserve" text-anchor="middle" x="2319" y="-478.45" font-family="Arial" font-size="14.00">Left: 0x0 | Right: 0x0</text>
</g>
<!-- 0x103101850&#45;&gt;0x103101e90 -->
<g id="edge32" class="edge">
<title>0x103101850&#45;&gt;0x103101e90</title>
<path fill="none" stroke="black" d="M2323.95,-611.56C2323.43,-601.57 2322.89,-591.15 2322.36,-581.01"/>
<polygon fill="black" stroke="black" points="2325.87,-581.05 2321.85,-571.24 2318.88,-581.41 2325.87,-581.05"/>
</g>
<!-- 0x103101cd0 -->
<g id="node35" class="node">
<title>0x103101cd0</title>
<path fill="#ff8c69" stroke="black" d="M2502.75,-456C2502.75,-456 2743.25,-456 2743.25,-456 2749.25,-456 2755.25,-462 2755.25,-468 2755.25,-468 2755.25,-562.75 2755.25,-562.75 2755.25,-568.75 2749.25,-574.75 2743.25,-574.75 2743.25,-574.75 2502.75,-574.75 2502.75,-574.75 2496.75,-574.75 2490.75,-568.75 2490.75,-562.75 2490.75,-562.75 2490.75,-468 2490.75,-468 2490.75,-462 2496.75,-456 2502.75,-456"/>
<text xml:space="preserve" text-anchor="middle" x="2623" y="-557.45" font-family="Arial" font-size="14.00">Parent: 0x103101790 </text>
<polyline fill="none" stroke="black" points="2490.75,-551 2755.25,-551"/>
<text xml:space="preserve" text-anchor="middle" x="2623" y="-533.7" font-family="Arial" font-size="14.00">Addr: 0x103101cd0 </text>
<polyline fill="none" stroke="black" points="2490.75,-527.25 2755.25,-527.25"/>
<text xml:space="preserve" text-anchor="middle" x="2623" y="-509.95" font-family="Arial" font-size="14.00">Type: OP</text>
<polyline fill="none" stroke="black" points="2490.75,-503.5 2755.25,-503.5"/>
<text xml:space="preserve" text-anchor="middle" x="2623" y="-486.2" font-family="Arial" font-size="14.00">Value: MUL</text>
<polyline fill="none" stroke="black" points="2490.75,-479.75 2755.25,-479.75"/>
<text xml:space="preserve" text-anchor="middle" x="2554.62" y="-462.45" font-family="Arial" font-size="14.00">Left: 0x103101d10</text>
<polyline fill="none" stroke="black" points="2618.5,-456 2618.5,-479.75"/>
<text xml:space="preserve" text-anchor="middle" x="2686.88" y="-462.45" font-family="Arial" font-size="14.00">Right: 0x1031017d0</text>
</g>
<!-- 0x103101790&#45;&gt;0x103101cd0 -->
<g id="edge34" class="edge">
<title>0x103101790&#45;&gt;0x103101cd0</title>
<path fill="none" stroke="black" d="M2602.57,-611.56C2604.36,-603.24 2606.21,-594.62 2608.03,-586.11"/>
<polygon fill="black" stroke="black" points="2611.42,-587.02 2610.09,-576.51 2604.57,-585.55 2611.42,-587.02"/>
</g>
<!-- 0x103101d10 -->
<g id="node36" class="node">
<title>0x103101d10</title>
<polygon fill="gold" stroke="black" points="2620,-337.26 2620,-381.99 2535.65,-413.62 2416.35,-413.62 2332,-381.99 2332,-337.26 2416.35,-305.63 2535.65,-305.62 2620,-337.26"/>
<text xml:space="preserve" text-anchor="middle" x="2476" y="-385.7" font-family="Arial" font-size="14.00">Parent: 0x103101cd0</text>
<text xml:space="preserve" text-anchor="middle" x="2476" y="-369.95" font-family="Arial" font-size="14.00">Addr: 0x103101d10</text>
<text xml:space="preserve" text-anchor="middle" x="2476" y="-354.2" font-family="Arial" font-size="14.00">Type: VAR</text>
<text xml:space="preserve" text-anchor="middle" x="2476" y="-338.45" font-family="Arial" font-size="14.00">Value: n</text>
<text xml:space="preserve" text-anchor="middle" x="2476" y="-322.7" font-family="Arial" font-size="14.00">Left: 0x0 | Right: 0x0</text>
</g>
<!-- 0x103101cd0&#45;&gt;0x103101d10 -->
<g id="edge35" class="edge">
<title>0x103101cd0&#45;&gt;0x103101d10</title>
<path fill="none" stroke="black" d="M2567.01,-455.81C2556.43,-444.75 2545.34,-433.15 2534.68,-422"/>
<polygon fill="black" stroke="black" points="2537.5,-419.88 2528.06,-415.07 2532.44,-424.72 2537.5,-419.88"/>
</g>
<!-- 0x1031017d0 -->
<g id="node37" class="node">
<title>0x1031017d0</title>
<path fill="#c6e2ff" stroke="black" d="M2650.12,-300.25C2650.12,-300.25 2889.88,-300.25 2889.88,-300.25 2895.88,-300.25 2901.88,-306.25 2901.88,-312.25 2901.88,-312.25 2901.88,-407 2901.88,-407 2901.88,-413 2895.88,-419 2889.88,-419 2889.88,-419 2650.12,-419 2650.12,-419 2644.12,-419 2638.12,-413 2638.12,-407 2638.12,-407 2638.12,-312.25 2638.12,-312.25 2638.12,-306.25 2644.12,-300.25 2650.12,-300.25"/>
<text xml:space="preserve" text-anchor="middle" x="2770" y="-401.7" font-family="Arial" font-size="14.00">Parent: 0x103101cd0 </text>
<polyline fill="none" stroke="black" points="2638.12,-395.25 2901.88,-395.25"/>
<text xml:space="preserve" text-anchor="middle" x="2770" y="-377.95" font-family="Arial" font-size="14.00">Addr: 0x1031017d0 </text>
<polyline fill="none" stroke="black" points="2638.12,-371.5 2901.88,-371.5"/>
<text xml:space="preserve" text-anchor="middle" x="2770" y="-354.2" font-family="Arial" font-size="14.00">Type: OP</text>
<polyline fill="none" stroke="black" points="2638.12,-347.75 2901.88,-347.75"/>
<text xml:space="preserve" text-anchor="middle" x="2770" y="-330.45" font-family="Arial" font-size="14.00">Value: call func</text>
<polyline fill="none" stroke="black" points="2638.12,-324 2901.88,-324"/>
<text xml:space="preserve" text-anchor="middle" x="2701.62" y="-306.7" font-family="Arial" font-size="14.00">Left: 0x103101c90</text>
<polyline fill="none" stroke="black" points="2765.12,-300.25 2765.12,-324"/>
<text xml:space="preserve" text-anchor="middle" x="2833.5" y="-306.7" font-family="Arial" font-size="14.00">Right: 0x103101bd0</text>
</g>
<!-- 0x103101cd0&#45;&gt;0x1031017d0 -->
<g id="edge36" class="edge">
<title>0x103101cd0&#45;&gt;0x1031017d0</title>
<path fill="none" stroke="black" d="M2678.99,-455.81C2687.84,-446.56 2697.05,-436.92 2706.06,-427.5"/>
<polygon fill="black" stroke="black" points="2708.49,-430.02 2712.87,-420.38 2703.43,-425.18 2708.49,-430.02"/>
</g>
<!-- 0x103101c90 -->
<g id="node38" class="node">
<title>0x103101c90</title>
<polygon fill="gold" stroke="black" points="2767,-181.51 2767,-226.24 2682.65,-257.88 2563.35,-257.88 2479,-226.24 2479,-181.51 2563.35,-149.88 2682.65,-149.88 2767,-181.51"/>
<text xml:space="preserve" text-anchor="middle" x="2623" y="-229.95" font-family="Arial" font-size="14.00">Parent: 0x1031017d0</text>
<text xml:space="preserve" text-anchor="middle" x="2623" y="-214.2" font-family="Arial" font-size="14.00">Addr: 0x103101c90</text>
<text xml:space="preserve" text-anchor="middle" x="2623" y="-198.45" font-family="Arial" font-size="14.00">Type: VAR</text>
<text xml:space="preserve" text-anchor="middle" x="2623" y="-182.7" font-family="Arial" font-size="14.00">Value: countfact</text>
<text xml:space="preserve" text-anchor="middle" x="2623" y="-166.95" font-family="Arial" font-size="14.00">Left: 0x0 | Right: 0x0</text>
</g>
<!-- 0x1031017d0&#45;&gt;0x103101c90 -->
<g id="edge37" class="edge">
<title>0x1031017d0&#45;&gt;0x103101c90</title>
<path fill="none" stroke="black" d="M2714.01,-300.06C2703.43,-289 2692.34,-277.4 2681.68,-266.25"/>
<polygon fill="black" stroke="black" points="2684.5,-264.13 2675.06,-259.32 2679.44,-268.97 2684.5,-264.13"/>
</g>
<!-- 0x103101bd0 -->
<g id="node39" class="node">
<title>0x103101bd0</title>
<path fill="#cd69c9" stroke="black" d="M2797.12,-144.5C2797.12,-144.5 3036.88,-144.5 3036.88,-144.5 3042.88,-144.5 3048.88,-150.5 3048.88,-156.5 3048.88,-156.5 3048.88,-251.25 3048.88,-251.25 3048.88,-257.25 3042.88,-263.25 3036.88,-263.25 3036.88,-263.25 2797.12,-263.25 2797.12,-263.25 2791.12,-263.25 2785.12,-257.25 2785.12,-251.25 2785.12,-251.25 2785.12,-156.5 2785.12,-156.5 2785.12,-150.5 2791.12,-144.5 2797.12,-144.5"/>
<text xml:space="preserve" text-anchor="middle" x="2917" y="-245.95" font-family="Arial" font-size="14.00">Parent: 0x1031017d0 </text>
<polyline fill="none" stroke="black" points="2785.12,-239.5 3048.88,-239.5"/>
<text xml:space="preserve" text-anchor="middle" x="2917" y="-222.2" font-family="Arial" font-size="14.00">Addr: 0x103101bd0 </text>
<polyline fill="none" stroke="black" points="2785.12,-215.75 3048.88,-215.75"/>
<text xml:space="preserve" text-anchor="middle" x="2917" y="-198.45" font-family="Arial" font-size="14.00">Type: OP</text>
<polyline fill="none" stroke="black" points="2785.12,-192 3048.88,-192"/>
<text xml:space="preserve" text-anchor="middle" x="2917" y="-174.7" font-family="Arial" font-size="14.00">Value: SUB</text>
<polyline fill="none" stroke="black" points="2785.12,-168.25 3048.88,-168.25"/>
<text xml:space="preserve" text-anchor="middle" x="2848.62" y="-150.95" font-family="Arial" font-size="14.00">Left: 0x103101c10</text>
<polyline fill="none" stroke="black" points="2912.12,-144.5 2912.12,-168.25"/>
<text xml:space="preserve" text-anchor="middle" x="2980.5" y="-150.95" font-family="Arial" font-size="14.00">Right: 0x103101b90</text>
</g>
<!-- 0x1031017d0&#45;&gt;0x103101bd0 -->
<g id="edge38" class="edge">
<title>0x1031017d0&#45;&gt;0x103101bd0</title>
<path fill="none" stroke="black" d="M2825.99,-300.06C2834.84,-290.81 2844.05,-281.17 2853.06,-271.75"/>
<polygon fill="black" stroke="black" points="2855.49,-274.27 2859.87,-264.63 2850.43,-269.43 2855.49,-274.27"/>
</g>
<!-- 0x103101c10 -->
<g id="node40" class="node">
<title>0x103101c10</title>
<polygon fill="gold" stroke="black" points="2903,-31.63 2903,-76.37 2818.65,-108 2699.35,-108 2615,-76.37 2615,-31.63 2699.35,0 2818.65,0 2903,-31.63"/>
<text xml:space="preserve" text-anchor="middle" x="2759" y="-80.08" font-family="Arial" font-size="14.00">Parent: 0x103101bd0</text>
<text xml:space="preserve" text-anchor="middle" x="2759" y="-64.33" font-family="Arial" font-size="14.00">Addr: 0x103101c10</text>
<text xml:space="preserve" text-anchor="middle" x="2759" y="-48.58" font-family="Arial" font-size="14.00">Type: VAR</text>
<text xml:space="preserve" text-anchor="middle" x="2759" y="-32.83" font-family="Arial" font-size="14.00">Value: n</text>
<text xml:space="preserve" text-anchor="middle" x="2759" y="-17.07" font-family="Arial" font-size="14.00">Left: 0x0 | Right: 0x0</text>
</g>
<!-- 0x103101bd0&#45;&gt;0x103101c10 -->
<g id="edge39" class="edge">
<title>0x103101bd0&#45;&gt;0x103101c10</title>
<path fill="none" stroke="black" d="M2854.1,-144.01C2844.28,-134.82 2834.12,-125.31 2824.26,-116.07"/>
<polygon fill="black" stroke="black" points="2826.85,-113.71 2817.16,-109.43 2822.06,-118.82 2826.85,-113.71"/>
</g>
<!-- 0x103101b90 -->
<g id="node41" class="node">
<title>0x103101b90</title>
<polygon fill="dodgerblue" stroke="black" points="3088.19,-0.15 3097.58,-0.44 3106.87,-0.89 3116.03,-1.47 3125.02,-2.21 3133.8,-3.08 3142.34,-4.09 3150.6,-5.24 3158.55,-6.53 3166.17,-7.94 3173.42,-9.48 3180.28,-11.14 3186.73,-12.92 3192.75,-14.82 3198.31,-16.82 3203.41,-18.92 3208.03,-21.12 3212.16,-23.4 3215.8,-25.78 3218.94,-28.22 3221.57,-30.74 3223.7,-33.33 3225.33,-35.97 3226.47,-38.66 3227.12,-41.39 3227.3,-44.16 3227.01,-46.95 3226.27,-49.76 3225.09,-52.59 3223.49,-55.41 3221.49,-58.24 3219.1,-61.05 3216.35,-63.84 3213.25,-66.61 3209.83,-69.34 3206.1,-72.03 3202.09,-74.67 3197.82,-77.26 3193.31,-79.78 3188.57,-82.22 3183.64,-84.6 3178.51,-86.88 3173.23,-89.08 3167.8,-91.18 3162.23,-93.18 3156.55,-95.08 3150.76,-96.86 3144.89,-98.52 3138.94,-100.06 3132.92,-101.47 3126.85,-102.76 3120.73,-103.91 3114.57,-104.92 3108.38,-105.79 3102.16,-106.53 3095.92,-107.11 3089.67,-107.56 3083.41,-107.85 3077.14,-108 3070.86,-108 3064.59,-107.85 3058.33,-107.56 3052.08,-107.11 3045.84,-106.53 3039.62,-105.79 3033.43,-104.92 3027.27,-103.91 3021.15,-102.76 3015.08,-101.47 3009.06,-100.06 3003.11,-98.52 2997.24,-96.86 2991.45,-95.08 2985.77,-93.18 2980.2,-91.18 2974.77,-89.08 2969.49,-86.88 2964.36,-84.6 2959.43,-82.22 2954.69,-79.78 2950.18,-77.26 2945.91,-74.67 2941.9,-72.03 2938.17,-69.34 2934.75,-66.61 2931.65,-63.84 2928.9,-61.05 2926.51,-58.24 2924.51,-55.41 2922.91,-52.59 2921.73,-49.76 2920.99,-46.95 2920.7,-44.16 2920.88,-41.39 2921.53,-38.66 2922.67,-35.97 2924.3,-33.33 2926.43,-30.74 2929.06,-28.22 2932.2,-25.78 2935.84,-23.4 2939.97,-21.12 2944.59,-18.92 2949.69,-16.82 2955.25,-14.82 2961.27,-12.92 2967.72,-11.14 2974.58,-9.48 2981.83,-7.94 2989.45,-6.53 2997.4,-5.24 3005.66,-4.09 3014.2,-3.08 3022.98,-2.21 3031.97,-1.47 3041.13,-0.89 3050.42,-0.44 3059.81,-0.15 3069.26,0 3078.74,0 3088.19,-0.15"/>
<text xml:space="preserve" text-anchor="middle" x="3074" y="-80.08" font-family="Arial" font-size="14.00">Parent: 0x103101bd0</text>
<text xml:space="preserve" text-anchor="middle" x="3074" y="-64.33" font-family="Arial" font-size="14.00">Addr: 0x103101b90</text>
<text xml:space="preserve" text-anchor="middle" x="3074" y="-48.58" font-family="Arial" font-size="14.00">Type: NUM</text>
<text xml:space="preserve" text-anchor="middle" x="3074" y="-32.83" font-family="Arial" font-size="14.00">Value: 1.00</text>
<text xml:space="preserve" text-anchor="middle" x="3074" y="-17.07" font-family="Arial" font-size="14.00">Left: 0x0 | Right: 0x0</text>
</g>
<!-- 0x103101bd0&#45;&gt;0x103101b90 -->
<g id="edge40" class="edge">
<title>0x103101bd0&#45;&gt;0x103101b90</title>
<path fill="none" stroke="black" d="M2979.5,-144.01C2991.06,-133.12 3003.11,-121.77 3014.57,-110.97"/>
<polygon fill="black" stroke="black" points="3016.82,-113.66 3021.7,-104.26 3012.02,-108.57 3016.82,-113.66"/>
</g>
</g>
</svg>
